HIERARCHY
ROOT hips
{
  OFFSET 0 10.6860622 2.3727825e-15
  CHANNELS 6 Xposition Yposition Zposition Yrotation Xrotation Zrotation
  JOINT leftUpperLeg
  {
    OFFSET 0.6642549969 -0.9402397400000004 0
    CHANNELS 3 Yrotation Xrotation Zrotation
    JOINT leftLowerLeg
    {
      OFFSET 0 -3.997221335632195 0
      CHANNELS 3 Yrotation Xrotation Zrotation
      JOINT leftFoot
      {
        OFFSET -0.13777839790000004 -4.6145792000000005 -0.22186036399999998
        CHANNELS 3 Yrotation Xrotation Zrotation
        JOINT leftToes
        {
          OFFSET -0.03777410834999995 -0.9130806927000008 0.85230013
          CHANNELS 3 Yrotation Xrotation Zrotation
          End Site
          {
            OFFSET -0.03777410834999995 -0.9130806927000008 0.85230013
          }
        }
      }
    }
  }
  JOINT rightUpperLeg
  {
    OFFSET -0.6642778626 -0.9402397400000004 0
    CHANNELS 3 Yrotation Xrotation Zrotation
    JOINT rightLowerLeg
    {
      OFFSET 0 -3.997221452859387 0
      CHANNELS 3 Yrotation Xrotation Zrotation
      JOINT rightFoot
      {
        OFFSET 0.1377926176 -4.6145792000000005 -0.22185782299999995
        CHANNELS 3 Yrotation Xrotation Zrotation
        JOINT rightToes
        {
          OFFSET 0.037780746850000047 -0.9130806927000008 0.85230167
          CHANNELS 3 Yrotation Xrotation Zrotation
          End Site
          {
            OFFSET 0.037780746850000047 -0.9130806927000008 0.85230167
          }
        }
      }
    }
  }
  JOINT spine
  {
    OFFSET 0 0.13988381660000015 0
    CHANNELS 3 Yrotation Xrotation Zrotation
    JOINT chest
    {
      OFFSET 0 0.6191039003973773 0
      CHANNELS 3 Yrotation Xrotation Zrotation
      JOINT upperChest
      {
        OFFSET 0 0.9855186130586943 0
        CHANNELS 3 Yrotation Xrotation Zrotation
        JOINT leftShoulder
        {
          OFFSET 0.1807663869 1.5087829790000005 0
          CHANNELS 3 Yrotation Xrotation Zrotation
          JOINT leftUpperArm
          {
            OFFSET 0.5985063006419806 0 0
            CHANNELS 3 Yrotation Xrotation Zrotation
            JOINT leftLowerArm
            {
              OFFSET 2.2993332369501065 0 0
              CHANNELS 3 Yrotation Xrotation Zrotation
              JOINT leftHand
              {
                OFFSET 2.395047042602395 0 0
                CHANNELS 3 Yrotation Xrotation Zrotation
                JOINT leftIndexProximal
                {
                  OFFSET 0.5766295810000004 0.04556643899499946 0.17265095988184
                  CHANNELS 3 Yrotation Xrotation Zrotation
                  JOINT leftIndexIntermediate
                  {
                    OFFSET 0.2957229000000008 -0.019352197700001517 -0.007932640616999987
                    CHANNELS 3 Yrotation Xrotation Zrotation
                    JOINT leftIndexDistal
                    {
                      OFFSET 0.19008243099999922 -0.012484908149998475 -0.002786250786000012
                      CHANNELS 3 Yrotation Xrotation Zrotation
                      End Site
                      {
                        OFFSET 0.19008243099999922 -0.012484908149998475 -0.002786250786000012
                      }
                    }
                  }
                }
                JOINT leftMiddleProximal
                {
                  OFFSET 0.5834975091000001 0.0524350405149987 0.02204081888183999
                  CHANNELS 3 Yrotation Xrotation Zrotation
                  JOINT leftMiddleIntermediate
                  {
                    OFFSET 0.33880573540000003 -0.019871473270000717 -0.00000971183179999946
                    CHANNELS 3 Yrotation Xrotation Zrotation
                    JOINT leftMiddleDistal
                    {
                      OFFSET 0.20676022730000088 -0.012221336379999448 0.0001471936708000235
                      CHANNELS 3 Yrotation Xrotation Zrotation
                      End Site
                      {
                        OFFSET 0.20676022730000088 -0.012221336379999448 0.0001471936708000235
                      }
                    }
                  }
                }
                JOINT leftLittleProximal
                {
                  OFFSET 0.5344154683999995 -0.012880921405001189 -0.24414037221816004
                  CHANNELS 3 Yrotation Xrotation Zrotation
                  JOINT leftLittleIntermediate
                  {
                    OFFSET 0.21758961730000093 -0.011650919939999227 0.011893592810000034
                    CHANNELS 3 Yrotation Xrotation Zrotation
                    JOINT leftLittleDistal
                    {
                      OFFSET 0.1475273964999999 -0.008152365682999818 0.006001092492999946
                      CHANNELS 3 Yrotation Xrotation Zrotation
                      End Site
                      {
                        OFFSET 0.1475273964999999 -0.008152365682999818 0.006001092492999946
                      }
                    }
                  }
                }
                JOINT leftRingProximal
                {
                  OFFSET 0.5799399463000003 0.026911854694997794 -0.12150566991816003
                  CHANNELS 3 Yrotation Xrotation Zrotation
                  JOINT leftRingIntermediate
                  {
                    OFFSET 0.26167887460000006 -0.013480186499999602 0.010996293000000053
                    CHANNELS 3 Yrotation Xrotation Zrotation
                    JOINT leftRingDistal
                    {
                      OFFSET 0.17667108799999987 -0.008990287899999228 0.0055541023999999065
                      CHANNELS 3 Yrotation Xrotation Zrotation
                      End Site
                      {
                        OFFSET 0.17667108799999987 -0.008990287899999228 0.0055541023999999065
                      }
                    }
                  }
                }
                JOINT leftThumbProximal
                {
                  OFFSET 0.11018806699999972 -0.09448718900500053 0.17047963138184
                  CHANNELS 3 Yrotation Xrotation Zrotation
                  JOINT leftThumbIntermediate
                  {
                    OFFSET 0.31062601459999983 -0.08126270900000132 0.15443142000000007
                    CHANNELS 3 Yrotation Xrotation Zrotation
                    JOINT leftThumbDistal
                    {
                      OFFSET 0.21627175790000086 -0.08833193599999878 0.018771167799999988
                      CHANNELS 3 Yrotation Xrotation Zrotation
                      End Site
                      {
                        OFFSET 0.21627175790000086 -0.08833193599999878 0.018771167799999988
                      }
                    }
                  }
                }
              }
            }
          }
        }
        JOINT neck
        {
          OFFSET 0 1.5463305265074576 0
          CHANNELS 3 Yrotation Xrotation Zrotation
          JOINT head
          {
            OFFSET 0 0.8456443600000344 0
            CHANNELS 3 Yrotation Xrotation Zrotation
            JOINT leftEye
            {
              OFFSET 0.30408573140000006 0.5104519199999995 0.1276382305
              CHANNELS 3 Yrotation Xrotation Zrotation
              End Site
              {
                OFFSET 0.30408573140000006 0.5104519199999995 0.1276382305
              }
            }
            JOINT rightEye
            {
              OFFSET -0.30409491089999996 0.5104519199999995 0.1276379445
              CHANNELS 3 Yrotation Xrotation Zrotation
              End Site
              {
                OFFSET -0.30409491089999996 0.5104519199999995 0.1276379445
              }
            }
            JOINT jaw
            {
              OFFSET -3.155239131000001e-7 -0.11984121820000082 0.60178107
              CHANNELS 3 Yrotation Xrotation Zrotation
              End Site
              {
                OFFSET -3.155239131000001e-7 -0.11984121820000082 0.60178107
              }
            }
          }
        }
        JOINT rightShoulder
        {
          OFFSET -0.1807303465 1.5087829790000005 0
          CHANNELS 3 Yrotation Xrotation Zrotation
          JOINT rightUpperArm
          {
            OFFSET -0.5985063796536958 0 0
            CHANNELS 3 Yrotation Xrotation Zrotation
            JOINT rightLowerArm
            {
              OFFSET -2.2993322059002854 0 0
              CHANNELS 3 Yrotation Xrotation Zrotation
              JOINT rightHand
              {
                OFFSET -2.395045314457259 0 0
                CHANNELS 3 Yrotation Xrotation Zrotation
                JOINT rightIndexProximal
                {
                  OFFSET -0.5764487688300002 0.0441371204405987 0.17361932004999997
                  CHANNELS 3 Yrotation Xrotation Zrotation
                  JOINT rightIndexIntermediate
                  {
                    OFFSET -0.29573011380000047 -0.01934826376999843 -0.007698921482999974
                    CHANNELS 3 Yrotation Xrotation Zrotation
                    JOINT rightIndexDistal
                    {
                      OFFSET -0.19008373999999884 -0.012503266380000655 -0.0026365778999999897
                      CHANNELS 3 Yrotation Xrotation Zrotation
                      End Site
                      {
                        OFFSET -0.19008373999999884 -0.012503266380000655 -0.0026365778999999897
                      }
                    }
                  }
                }
                JOINT rightMiddleProximal
                {
                  OFFSET -0.5834852037300005 0.05211639405060153 0.02307162440000001
                  CHANNELS 3 Yrotation Xrotation Zrotation
                  JOINT rightMiddleIntermediate
                  {
                    OFFSET -0.33880114510000003 -0.019952774050000954 0.0002455003561999819
                    CHANNELS 3 Yrotation Xrotation Zrotation
                    JOINT rightMiddleDistal
                    {
                      OFFSET -0.20675694929999955 -0.012273788999999091 0.00030209124000002766
                      CHANNELS 3 Yrotation Xrotation Zrotation
                      End Site
                      {
                        OFFSET -0.20675694929999955 -0.012273788999999091 0.00030209124000002766
                      }
                    }
                  }
                }
                JOINT rightLittleProximal
                {
                  OFFSET -0.5346811737299992 -0.011214256288399227 -0.24363941305000003
                  CHANNELS 3 Yrotation Xrotation Zrotation
                  JOINT rightLittleIntermediate
                  {
                    OFFSET -0.21757715980000092 -0.011771559690000988 0.01201554387
                    CHANNELS 3 Yrotation Xrotation Zrotation
                    JOINT rightLittleDistal
                    {
                      OFFSET -0.1475201849000004 -0.00822055339600003 0.006082065407000015
                      CHANNELS 3 Yrotation Xrotation Zrotation
                      End Site
                      {
                        OFFSET -0.1475201849000004 -0.00822055339600003 0.006082065407000015
                      }
                    }
                  }
                }
                JOINT rightRingProximal
                {
                  OFFSET -0.5800810755299999 0.027657985680600072 -0.12066365025000003
                  CHANNELS 3 Yrotation Xrotation Zrotation
                  JOINT rightRingIntermediate
                  {
                    OFFSET -0.26166445029999974 -0.013623118409999302 0.011164098990000045
                    CHANNELS 3 Yrotation Xrotation Zrotation
                    JOINT rightRingDistal
                    {
                      OFFSET -0.17666387530000027 -0.009072900100000503 0.005668185599999959
                      CHANNELS 3 Yrotation Xrotation Zrotation
                      End Site
                      {
                        OFFSET -0.17666387530000027 -0.009072900100000503 0.005668185599999959
                      }
                    }
                  }
                }
                JOINT rightThumbProximal
                {
                  OFFSET -0.10997596379000074 -0.09577489355940072 0.16989765924999997
                  CHANNELS 3 Yrotation Xrotation Zrotation
                  JOINT rightThumbIntermediate
                  {
                    OFFSET -0.31036620999999986 -0.08229339117999834 0.15440884469999996
                    CHANNELS 3 Yrotation Xrotation Zrotation
                    JOINT rightThumbDistal
                    {
                      OFFSET -0.21631306399999906 -0.08825326400000111 0.018656797720000014
                      CHANNELS 3 Yrotation Xrotation Zrotation
                      End Site
                      {
                        OFFSET -0.21631306399999906 -0.08825326400000111 0.018656797720000014
                      }
                    }
                  }
                }
              }
            }
          }
        }
      }
    }
  }
}
MOTION
Frames: 8
Frame Time: 0.03333333333333333
5.366740723532839 -7.143564926039163 3.7738081696345844 0.000002390745174798865 65.27397524013523 0.0000021715575825557203 -135.54670440988238 -63.485139555373685 133.16585639330714 176.64612946643464 29.89711643202982 176.0386935162795 -22.231342829641044 -15.783743526274105 -13.110306925124737 0 0 0 135.55079644659054 -63.4998691941937 -133.17746221274325 -176.62892836900278 29.909539896021894 -176.04523494854635 22.224034201758617 -15.789136159648875 13.106552958362446 0 0 0 -0.9809913645216307 41.53109316225223 -1.5346698866082336 -0.41716443472465353 38.16817375801003 -0.8337910503054994 0 0 0 -3.8172172577684877 -5.016856905526443 -6.809962077115776 -52.96854570694442 -78.96059949932352 -23.411467943571857 -93.29058312827559 37.874510840134526 -73.88012006896847 -10.640171724660824 -32.075049992953794 -66.59567833190036 0 0 0 0 0 0 0 0 0 0 0 0 0 0 0 0 0 0 0 0 0 0 0 0 0 0 0 0 0 0 0 0 0 0 0 0 0 0 0 0 0 0 0 0 0 46.97153693490933 -13.061247633749153 -27.374044961248202 19.502867969561713 -23.006817189658864 7.409592003347106 0 0 0 0 0 0 0 0 0 7.5024416270622165 -6.169452559254715 6.929658624369537 52.905655556074954 -78.93131730328247 23.375521494957056 91.26671384779303 43.210112303256814 73.9837604365352 13.968211169452173 -31.129525456623664 64.66061652722377 0 0 0 0 0 0 0 0 0 0 0 0 0 0 0 0 0 0 0 0 0 0 0 0 0 0 0 0 0 0 0 0 0 0 0 0 0 0 0 0 0 0 0 0 0
5.366740723532839 -7.143564926039163 3.767439489428763 0.0000023705381151900177 65.04886481284576 0.0000021492907380684928 -135.54670440988238 -63.485139555373685 133.16585639330714 176.64612946643464 29.89711643202982 176.0386935162795 -22.231342829641044 -15.783743526274105 -13.110306925124737 0 0 0 135.55079644659054 -63.4998691941937 -133.17746221274325 -176.62892836900278 29.909539896021894 -176.04523494854635 22.224034201758617 -15.789136159648875 13.106552958362446 0 0 0 -0.983722287486999 41.70608205698886 -1.5386826155086846 -0.4182950843444246 38.36825910028635 -0.8356281969762018 0 0 0 -3.8189251311118073 -4.998615987016868 -6.803974498025324 -52.96854570694442 -78.96059949932352 -23.411467943571857 -93.3532328762366 37.69885516161749 -73.88352817238003 -10.395611118240348 -32.007361828832416 -66.64404263453314 0 0 0 0 0 0 0 0 0 0 0 0 0 0 0 0 0 0 0 0 0 0 0 0 0 0 0 0 0 0 0 0 0 0 0 0 0 0 0 0 0 0 0 0 0 46.90326333398431 -12.95095365849548 -27.549947646464343 19.47316374901301 -22.723943684206038 7.3554042275019444 0 0 0 0 0 0 0 0 0 7.304128953634285 -6.302060686504758 6.981790013295312 52.905655556074954 -78.93131730328247 23.375521494957056 91.44063965159633 42.75590324781753 73.99091381301554 13.551822215955887 -31.11636869181663 64.80767660559245 0 0 0 0 0 0 0 0 0 0 0 0 0 0 0 0 0 0 0 0 0 0 0 0 0 0 0 0 0 0 0 0 0 0 0 0 0 0 0 0 0 0 0 0 0
5.366740723532839 -7.143564926039163 3.761070809222941 0.0000023507045282742025 64.82373679122912 0.000002127395577056393 -135.54670440988238 -63.485139555373685 133.16585639330714 176.64612946643464 29.89711643202982 176.0386935162795 -22.231342829641044 -15.783743526274105 -13.110306925124737 0 0 0 135.55079644659054 -63.4998691941937 -133.17746221274325 -176.62892836900278 29.909539896021894 -176.04523494854635 22.224034201758617 -15.789136159648875 13.106552958362446 0 0 0 -0.9864774024121816 41.881080659355646 -1.5427180054702534 -0.4194370752789899 38.56832696111222 -0.8374753629054523 0 0 0 -3.820630572283856 -4.980376433429949 -6.797988064623705 -52.96854570694442 -78.96059949932352 -23.411467943571857 -93.41573989581192 37.523179796163916 -73.88668585354692 -10.151309027772864 -31.93950227050116 -66.69203343697234 0 0 0 0 0 0 0 0 0 0 0 0 0 0 0 0 0 0 0 0 0 0 0 0 0 0 0 0 0 0 0 0 0 0 0 0 0 0 0 0 0 0 0 0 0 46.834664888295904 -12.840871362313548 -27.72590445226888 19.443225176358247 -22.44109777813101 7.30117001653508 0 0 0 0 0 0 0 0 0 7.105648090045882 -6.434487920828962 7.034396938751252 52.905655556074954 -78.93131730328247 23.375521494957056 91.61327161880712 42.30169775656505 73.99618018979474 13.135561710894683 -31.1022964028397 64.95458334538434 0 0 0 0 0 0 0 0 0 0 0 0 0 0 0 0 0 0 0 0 0 0 0 0 0 0 0 0 0 0 0 0 0 0 0 0 0 0 0 0 0 0 0 0 0
5.366740723532839 -7.143564926039163 3.754702129017119 0.0000023312382943800933 64.59864391049078 0.000002105866254074428 -135.54670440988238 -63.485139555373685 133.16585639330714 176.64612946643464 29.89711643202982 176.0386935162795 -22.231342829641044 -15.783743526274105 -13.110306925124737 0 0 0 135.55078572712867 -63.4998691941937 -133.17745087783518 -176.62892836900278 29.909539896021894 -176.04523494854635 22.224034201758617 -15.789136159648875 13.106552958362446 0 0 0 -0.9892583511439264 42.0560722903659 -1.5467760055780464 -0.42059057172061026 38.768405924643815 -0.8393328181344253 0 0 0 -3.822334893917346 -4.96213610033965 -6.792002369405406 -52.96854570694442 -78.96059949932352 -23.411467943571857 -93.47808606276335 37.34751330819448 -73.88959829308531 -9.907260062764257 -31.871467581217885 -66.73963886385737 0 0 0 0 0 0 0 0 0 0 0 0 0 0 0 0 0 0 0 0 0 0 0 0 0 0 0 0 0 0 0 0 0 0 0 0 0 0 0 0 0 0 0 0 0 46.76575840122227 -12.730993057607861 -27.901914560687693 19.41306436485873 -22.158294554580092 7.246888863782567 0 0 0 0 0 0 0 0 0 6.906994814578203 -6.566725806073809 7.087474186070869 52.905655556074954 -78.93131730328247 23.375521494957056 91.78460091668029 41.84754086687883 73.99958027265251 12.719424254468622 -31.087324947105277 65.10135527034545 0 0 0 0 0 0 0 0 0 0 0 0 0 0 0 0 0 0 0 0 0 0 0 0 0 0 0 0 0 0 0 0 0 0 0 0 0 0 0 0 0 0 0 0 0
5.366740723532839 -7.143564926039163 3.7483334488112976 0.0000023121252701074362 64.37351870437892 0.0000020846877932561345 -135.54670440988238 -63.485139555373685 133.16585639330714 176.64612946643464 29.89711643202982 176.0386935162795 -22.231342829641044 -15.783743526274105 -13.110306925124737 0 0 0 135.55078572712867 -63.4998691941937 -133.17745087783518 -176.62892836900278 29.909539896021894 -176.04523494854635 22.224034201758617 -15.789136159648875 13.106552958362446 0 0 0 -0.9920624639324743 42.23107236817048 -1.550857146029859 -0.4217544132325068 38.96847657223039 -0.841199834222939 0 0 0 -3.8240376398043883 -4.943897556847915 -6.7860190724114124 -52.96854570694442 -78.96059949932352 -23.411467943571857 -93.54024840065522 37.17184970404576 -73.89224979496488 -9.663459272693837 -31.803266089950025 -66.78688137014436 0 0 0 0 0 0 0 0 0 0 0 0 0 0 0 0 0 0 0 0 0 0 0 0 0 0 0 0 0 0 0 0 0 0 0 0 0 0 0 0 0 0 0 0 0 46.696530949607066 -12.621326823530758 -28.077975744392692 19.382676447256927 -21.875534246148536 7.1925560767880645 0 0 0 0 0 0 0 0 0 6.708175175900306 -6.698778765869977 7.14102851424807 52.905655556074954 -78.93131730328247 23.375521494957056 91.95461497111792 41.39344428397355 74.00111319102909 12.303441725478722 -31.07143082567058 65.24793692209089 0 0 0 0 0 0 0 0 0 0 0 0 0 0 0 0 0 0 0 0 0 0 0 0 0 0 0 0 0 0 0 0 0 0 0 0 0 0 0 0 0 0 0 0 0
5.366740723532839 -7.143564926039163 3.7419645002132036 0.0000022933608745593845 64.14842901659944 0.000002063856729661133 -135.54670440988238 -63.485139555373685 133.16585639330714 176.64612946643464 29.89711643202982 176.0386935162795 -22.231342829641044 -15.783743526274105 -13.110306925124737 0 0 0 135.55078572712867 -63.4998691941937 -133.17745087783518 -176.62892836900278 29.909539896021894 -176.04523494854635 22.224034201758617 -15.789136159648875 13.106552958362446 0 0 0 -0.9948914414245418 42.40605485191586 -1.5549601162059665 -0.42293127863388813 39.168545688172244 -0.8430781435572571 0 0 0 -3.825735817786921 -4.92565565932842 -6.7800347874234 -52.96854570694442 -78.96059949932352 -23.411467943571857 -93.6022852406208 36.99618304220309 -73.89467148754751 -9.419917828212757 -31.73489405417808 -66.8337348418946 0 0 0 0 0 0 0 0 0 0 0 0 0 0 0 0 0 0 0 0 0 0 0 0 0 0 0 0 0 0 0 0 0 0 0 0 0 0 0 0 0 0 0 0 0 46.62700154619144 -12.511873733937415 -28.254093516361124 19.352057066715865 -21.5928152396427 7.138175210130348 0 0 0 0 0 0 0 0 0 6.509181592010162 -6.83063746463021 7.195053466827533 52.905655556074954 -78.93131730328247 23.375521494957056 92.1234542673314 40.93942824999827 74.00087303852591 11.887609148902902 -31.054638418702833 65.39437749651603 0 0 0 0 0 0 0 0 0 0 0 0 0 0 0 0 0 0 0 0 0 0 0 0 0 0 0 0 0 0 0 0 0 0 0 0 0 0 0 0 0 0 0 0 0
5.366740723532839 -7.143564926039163 3.735595820007382 0 63.92333171171914 0 -135.54670440988238 -63.485139555373685 133.16585639330714 176.64612946643464 29.89711643202982 176.0386935162795 -22.231342829641044 -15.783743526274105 -13.110306925124737 0 0 0 135.55078572712867 -63.4998691941937 -133.17745087783518 -176.62892836900278 29.909539896021894 -176.04523494854635 22.224034201758617 -15.789136159648875 13.106552958362446 0 0 0 -0.9977438953646415 42.5810258711817 -1.5590853180748914 -0.4241199780441056 39.36860687428033 -0.8449669570535489 0 0 0 -3.827434161192885 -4.907417261527872 -6.774051660932506 -52.96854570694442 -78.96059949932352 -23.411467943571857 -93.66414392008335 36.82052876271763 -73.89684082843019 -9.176630364851802 -31.666367804218353 -66.88022383438144 0 0 0 0 0 0 0 0 0 0 0 0 0 0 0 0 0 0 0 0 0 0 0 0 0 0 0 0 0 0 0 0 0 0 0 0 0 0 0 0 0 0 0 0 0 46.557159802191286 -12.402633117528701 -28.43027028765455 19.321218823555228 -21.31014509139212 7.083741577435649 0 0 0 0 0 0 0 0 0 6.310020955577358 -6.96230330196892 7.249551973618739 52.905655556074954 -78.93131730328247 23.375521494957056 92.29113675690719 40.48549881252501 73.99889729622844 11.471956681663436 -31.036932257543192 65.54061472006785 0 0 0 0 0 0 0 0 0 0 0 0 0 0 0 0 0 0 0 0 0 0 0 0 0 0 0 0 0 0 0 0 0 0 0 0 0 0 0 0 0 0 0 0 0
5.366740723532839 -7.143564926039163 3.7292274081938315 0 63.698262075601356 0 -135.54670440988238 -63.485139555373685 133.16585639330714 176.64612946643464 29.89711643202982 176.0386935162795 -22.231342829641044 -15.783743526274105 -13.110306925124737 0 0 0 135.55078572712867 -63.4998691941937 -133.17745087783518 -176.62892836900278 29.909539896021894 -176.04523494854635 22.224034201758617 -15.789136159648875 13.106552958362446 0 0 0 -1.0006232522799505 42.756000921351045 -1.5632354867177343 -0.4253205873166933 39.56865808181565 -0.8468676025916009 0 0 0 -3.829130075679814 -4.88917507773287 -6.768067521584301 -52.96854570694442 -78.96059949932352 -23.411467943571857 -93.72588164271535 36.64487236598704 -73.89878446894367 -8.933613911986948 -31.597671545477642 -66.92631123420729 0 0 0 0 0 0 0 0 0 0 0 0 0 0 0 0 0 0 0 0 0 0 0 0 0 0 0 0 0 0 0 0 0 0 0 0 0 0 0 0 0 0 0 0 0 46.487000128793994 -12.293612173433102 -28.606492846747514 19.29014964639798 -21.02752946333367 7.02925277098224 0 0 0 0 0 0 0 0 0 6.110689080494383 -7.093772940985046 7.30452485331791 52.905655556074954 -78.93131730328247 23.375521494957056 92.45763969084751 40.03169737565287 73.99517334386918 11.056507450266219 -31.018320820137095 65.68662951259452 0 0 0 0 0 0 0 0 0 0 0 0 0 0 0 0 0 0 0 0 0 0 0 0 0 0 0 0 0 0 0 0 0 0 0 0 0 0 0 0 0 0 0 0 0
